Coordinates
version=1
nRows=10
nColumns=40
inDegrees=yes

Units are S.I. units (second, meters, Newtons, ...)
Angles are in degrees.

endheader
time	pelvis_tilt	pelvis_list	pelvis_rotation	pelvis_tx	pelvis_ty	pelvis_tz	hip_flexion_r	hip_adduction_r	hip_rotation_r	knee_angle_r	knee_angle_r_beta	ankle_angle_r	subtalar_angle_r	mtp_angle_r	hip_flexion_l	hip_adduction_l	hip_rotation_l	knee_angle_l	knee_angle_l_beta	ankle_angle_l	subtalar_angle_l	mtp_angle_l	lumbar_extension	lumbar_bending	lumbar_rotation	arm_flex_r	arm_add_r	arm_rot_r	elbow_flex_r	pro_sup_r	wrist_flex_r	wrist_dev_r	arm_flex_l	arm_add_l	arm_rot_l	elbow_flex_l	pro_sup_l	wrist_flex_l	wrist_dev_l
     19.47250000	     -6.07015282	     -3.36478952	      1.47829392	      0.81924192	      0.91566637	      0.37927403	     18.89796048	     -9.54415499	    -10.68400131	     57.63609196	     57.63609196	      9.49397957	    -19.27801165	     13.17214907	     18.36299465	     -1.67376058	     -0.93032509	     31.12088582	     31.12088582	     20.54419459	    -17.88899544	     10.48667963	    -10.31154598	      6.69774056	      4.94180889	     24.73409126	    -13.49595158	     -4.71421977	     35.04685725	     46.79333810	      0.00000000	      0.00000000	     15.13262880	    -21.69154164	     -6.95769090	     66.16047924	     46.93656302	      0.00000000	      0.00000000
     19.49185714	     -6.01462431	     -3.37274244	      0.79130978	      0.81824482	      0.91549601	      0.37894989	     20.32667303	     -9.51649267	    -10.60168164	     58.61511114	     58.61511114	     10.11725024	    -19.34432346	     14.41229441	     17.87003924	     -1.80346190	     -1.48700747	     31.13410212	     31.13410212	     20.89238102	    -17.94808584	     10.51554788	    -10.51595493	      6.80195366	      4.97900011	     22.36803169	    -13.99704070	     -4.92252168	     32.88435841	     46.86145385	      0.00000000	      0.00000000	     16.83313492	    -21.72520664	     -7.13583230	     67.19115277	     46.99082382	      0.00000000	      0.00000000
     19.51121429	     -6.00649415	     -3.42192574	      0.08954342	      0.81731081	      0.91574642	      0.37921059	     21.67901949	     -9.29164604	    -10.51336005	     58.89925212	     58.89925212	     10.80029564	    -19.37845868	     15.36232220	     17.33941949	     -2.01003431	     -2.05662271	     30.98225336	     30.98225336	     21.14271154	    -17.95745992	     10.54345201	    -10.68441939	      6.93106602	      4.90962081	     20.01245380	    -14.33911365	     -5.06662260	     30.88481598	     46.92177011	      0.00000000	      0.00000000	     18.43099110	    -21.83003649	     -7.30207203	     68.11597335	     47.04002195	      0.00000000	      0.00000000
     19.53057143	     -6.01919496	     -3.58799458	     -0.63946518	      0.81647835	      0.91637772	      0.38009878	     22.92518401	     -8.80237891	    -10.41686401	     58.49791760	     58.49791760	     11.45817792	    -19.35231965	     15.86789626	     16.72598114	     -2.37733700	     -2.62100803	     30.64931070	     30.64931070	     21.30117156	    -17.92147938	     10.55352241	    -10.83419801	      7.16978506	      4.80936247	     17.62714099	    -14.58726454	     -5.16548577	     29.10609183	     46.97172773	      0.00000000	      0.00000000	     19.89756879	    -21.96619959	     -7.49654888	     69.03367531	     47.08857736	      0.00000000	      0.00000000
     19.54992857	     -6.15802411	     -3.76571119	     -1.35831751	      0.81571142	      0.91720017	      0.38156520	     24.15786861	     -8.16893554	    -10.28978642	     57.39336947	     57.39336947	     12.00080927	    -19.27231973	     15.76077444	     16.19182947	     -2.78732923	     -3.17982934	     30.21766026	     30.21766026	     21.37263540	    -17.89897104	     10.61430031	    -10.81734935	      7.42151273	      4.10592107	     15.37985644	    -14.49862238	     -5.17561972	     28.12834049	     46.99044151	      0.00000000	      0.00000000	     20.93542540	    -22.67083645	     -7.84345185	     69.56659862	     47.13006791	      0.00000000	      0.00000000
     19.56928571	     -6.24458217	     -4.01765981	     -2.18708495	      0.81510885	      0.91856251	      0.38365404	     25.16385810	     -7.28231608	    -10.00857002	     55.53118242	     55.53118242	     12.33885723	    -19.15837264	     15.32558482	     15.40771371	     -3.33315531	     -3.90445995	     29.49162187	     29.49162187	     21.31930826	    -17.72138741	     10.55764912	    -10.92704063	      7.66130341	      4.63637662	     12.67471425	    -14.94504081	     -5.18873100	     26.45613964	     47.03060268	      0.00000000	      0.00000000	     22.45124235	    -22.15700372	     -8.07730713	     71.23362659	     47.19054727	      0.00000000	      0.00000000
     19.58864286	     -6.41215140	     -4.24868443	     -2.99985395	      0.81463660	      0.91989175	      0.38624585	     26.06651789	     -6.34360355	     -9.67410841	     53.01750174	     53.01750174	     12.34711132	    -18.88875337	     13.90473189	     14.67529787	     -3.87338247	     -4.62966667	     28.72387648	     28.72387648	     21.15093224	    -17.57529249	     10.28150607	    -10.91491032	      7.86841882	      4.77854634	     10.07948455	    -15.08862539	     -5.26915807	     25.33649554	     47.04881916	      0.00000000	      0.00000000	     23.76276935	    -22.10629214	     -8.37574274	     72.63907822	     47.25342021	      0.00000000	      0.00000000
     19.60800000	     -6.59096279	     -4.53182954	     -3.82771238	      0.81425275	      0.92141219	      0.38934930	     26.72775045	     -5.27211194	     -9.29413671	     49.78733492	     49.78733492	     12.01378194	    -18.44945668	     11.92269969	     13.84411165	     -4.48402604	     -5.38571103	     27.78652048	     27.78652048	     20.88995554	    -17.40981466	     10.02917099	    -10.91562611	      8.13065132	      4.78219153	      7.55938492	    -15.14656362	     -5.38511021	     24.68799170	     47.05021223	      0.00000000	      0.00000000	     24.79595355	    -22.17762767	     -8.73411052	     74.05939009	     47.31757721	      0.00000000	      0.00000000
     19.62735714	     -6.86107576	     -4.68339194	     -4.61898551	      0.81409926	      0.92259725	      0.39262486	     26.99219105	     -4.53941705	     -9.34087391	     45.44843808	     45.44843808	      9.07021713	    -17.95309182	      2.32654987	     13.02495164	     -4.94368374	     -6.17435267	     26.68593525	     26.68593525	     20.19716793	    -17.33782387	      8.66440774	    -10.75438559	      8.29350112	      4.70868464	      4.55037543	    -15.15270320	     -5.94518193	     25.50067212	     46.95925383	      0.00000000	      0.00000000	     25.69709492	    -22.30009882	     -9.12587746	     75.55912680	     47.44687399	      0.00000000	      0.00000000
     19.64671429	     -7.07355124	     -4.87159658	     -5.40124821	      0.81407870	      0.92373992	      0.39642701	     27.14340982	     -3.61900199	     -9.12264709	     41.03241197	     41.03241197	      7.74760614	    -16.66866140	     -1.63164741	     12.13300387	     -5.44404442	     -6.92890137	     25.63976613	     25.63976613	     19.91939878	    -17.13524220	      8.28680416	    -10.68296651	      8.45526288	      4.62532123	      1.93953399	    -15.07627941	     -6.28790194	     25.83036167	     46.89676422	      0.00000000	      0.00000000	     26.42790648	    -22.44279385	     -9.63153003	     77.50905592	     47.56840859	      0.00000000	      0.00000000
